<?xml version="1.0" encoding="utf-8"?>
<!-- Generator: Adobe Illustrator 22.0.1, SVG Export Plug-In . SVG Version: 6.00 Build 0)  -->
<svg version="1.1" id="Layer_1" xmlns="http://www.w3.org/2000/svg" xmlns:xlink="http://www.w3.org/1999/xlink" x="0px" y="0px"
	 viewBox="0 0 100 100" style="enable-background:new 0 0 100 100;" xml:space="preserve">
<style type="text/css">
	.st0{fill:#2B96EA;}
	.st1{fill:#FFFFFF;}
</style>
<path class="st0" d="M80.9,48.5l-5.2-6.9l0.2-8.6c0-1.1-0.7-2.1-1.7-2.4l-8.3-2.5L61,21.1c-0.6-0.9-1.8-1.3-2.8-0.9L50,23l-8.1-2.8
	c-1-0.4-2.2,0-2.8,0.9l-4.9,7.1l-8.3,2.5c-1.1,0.3-1.8,1.3-1.7,2.4l0.2,8.6l-5.2,6.9c-0.7,0.9-0.7,2.1,0,3l5.2,6.9L24.1,67
	c0,1.1,0.7,2.1,1.7,2.4l8.3,2.5l4.9,7.1c0.6,0.9,1.8,1.3,2.8,0.9L50,77l8.1,2.8c1,0.4,2.2,0,2.8-0.9l4.9-7.1l8.3-2.5
	c1.1-0.3,1.8-1.3,1.7-2.4l-0.2-8.6l5.2-6.9C81.6,50.6,81.6,49.4,80.9,48.5z"/>
<path class="st1" d="M66,37.1c1.2,1.4,1.2,3.6,0,5L47.6,62.9c-1.2,1.4-3.2,1.4-4.4,0L34,52.5c-1.2-1.4-1.2-3.6,0-5
	c1.2-1.4,3.2-1.4,4.4,0l7,7.9l16.2-18.3C62.8,35.8,64.8,35.8,66,37.1z"/>
</svg>
